<?xml version="1.0" encoding="utf-8"?>
<!-- Generator: Adobe Illustrator 22.1.0, SVG Export Plug-In . SVG Version: 6.00 Build 0)  -->
<svg version="1.1" id="Layer_1" xmlns="http://www.w3.org/2000/svg" xmlns:xlink="http://www.w3.org/1999/xlink" x="0px" y="0px"
	 viewBox="0 0 300 250" style="enable-background:new 0 0 300 250;" xml:space="preserve">
<g>
	<path d="M231.2,97.9c14.5,0,29,0,43.5,0c0,14.5,0,28.9,0,43.4c-2.9,0-5.8,0-8.8,0c3.4-10.9,1.7-20.8-6-29.2
		c-7.8-8.4-17.5-10.8-28.6-8.4c0-0.1-0.1-0.1-0.1-0.2C231.2,101.6,231.2,99.8,231.2,97.9z"/>
	<path d="M189.2,120.9c0-3.5,0-7,0-10.6c0-0.5,0.1-0.7,0.7-0.7c4,0,8.1,0,12.1,0.1c2.3,0.1,4.6,0.5,6.8,1.4c3.8,1.7,5.7,4.8,5.9,8.9
		c0.1,2-0.1,3.9-0.9,5.8c-1.4,3.2-3.9,5-7.2,5.8c-1.9,0.5-3.8,0.7-5.8,0.7c-3.6,0-7.3,0-10.9,0c-0.6,0-0.7-0.2-0.7-0.7
		C189.2,128.1,189.2,124.5,189.2,120.9z M195.6,121c0,1.9,0,3.7,0,5.6c0,0.8,0,0.8,0.9,0.8c1.3,0,2.5,0.1,3.8,0
		c1.1-0.1,2.1-0.1,3.2-0.3c2.1-0.4,3.7-1.5,4.3-3.7c0.3-1,0.3-2.1,0.3-3.1c-0.1-2.5-1.4-4.4-3.7-5c-0.9-0.3-1.9-0.5-2.9-0.5
		c-1.7-0.1-3.5,0-5.3-0.1c-0.5,0-0.6,0.1-0.6,0.6C195.6,117.2,195.6,119,195.6,121z"/>
	<path d="M82,123.2c0-4.5,0-9,0-13.5c2,0,3.9,0,5.9,0c0,7.6,0,15.1,0,22.7c-0.5,0-1.1,0-1.5,0c-0.9,0-1.7,0-2.6,0
		c-0.4,0-0.7-0.1-1-0.4c-4.3-4.4-8.6-8.8-13-13.3c-0.2-0.2-0.3-0.5-0.5-0.7c-0.1,0.1-0.1,0.1-0.2,0.1c0,4.7,0,9.4,0,14.1
		c-0.2,0-0.4,0.1-0.5,0.1c-1.7,0-3.3,0-5,0c-0.4,0-0.5-0.1-0.5-0.5c0-7.2,0-14.5,0-21.7c0-0.1,0-0.3,0.1-0.5c0.2,0,0.4,0,0.6,0
		c1.4,0,2.9,0,4.3,0c0.5,0,0.7,0.1,1,0.5c4.1,4.3,8.2,8.5,12.4,12.8c0.1,0.1,0.2,0.3,0.3,0.5C81.8,123.3,81.9,123.2,82,123.2z"/>
	<path d="M174.3,118.7c0,1.5,0,2.8,0,4.2c0,0.1-0.2,0.3-0.3,0.3c-0.2,0.1-0.4,0-0.5,0c-3.7,0-7.4,0-11,0c-0.5,0-0.8,0.1-0.7,0.7
		c0.1,1,0.1,1.9,0,2.9c0,0.5,0.1,0.7,0.7,0.7c4.5,0,9,0,13.5,0c0.3,0,0.5,0,0.8,0c0,0.4,0,0.7,0,1.1c0,1.1-0.1,2.1,0,3.1
		c0,0.5-0.2,0.7-0.7,0.7c-6.3,0-12.6,0-18.9,0c-0.5,0-0.9,0-1.3,0c-0.4,0-0.5-0.1-0.5-0.5c0-0.6,0-1.2,0-1.8c0-6.6,0-13.1,0-19.7
		c0-0.3,0-0.5,0-0.7c7.1,0,14.1,0,21.2,0c0,0.7,0,1.3,0,2c0,0.7,0,1.5,0,2.3c0,0.5-0.1,0.7-0.6,0.7c-3.7,0-7.5,0-11.2,0
		c-0.8,0-1.7,0-2.5,0c-0.5,0-0.6,0.1-0.6,0.6c0,1,0,1.9,0,2.9c0,0.5,0.1,0.6,0.6,0.6c3.7,0,7.5,0,11.2,0
		C173.7,118.7,173.9,118.7,174.3,118.7z"/>
	<path d="M25.7,109.7c2.1,0,4.2,0,6.4,0c0,0.3,0,0.5,0,0.7c0,3.9,0,7.9,0,11.8c0,0.5,0.1,1.1,0.1,1.7c0.4,2.1,1.8,3.2,3.8,3.6
		c1.6,0.3,3.3,0.3,4.9-0.1c1.9-0.6,3.1-1.9,3.2-4c0.1-2.7,0.1-5.4,0.1-8.1c0-1.7,0-3.3,0-5c0-0.3,0-0.5,0.4-0.5c1.9,0,3.7,0,5.6,0
		c0.1,0,0.1,0,0.3,0.1c0,0.2,0,0.4,0,0.6c0,4,0,8,0,12c0,1.8-0.3,3.5-1.1,5.2c-1.3,2.5-3.4,3.9-6,4.6c-4,1-8.1,1-12-0.5
		c-3.5-1.4-5.5-4.1-5.6-7.9c-0.2-4.6-0.1-9.2-0.1-13.9C25.6,109.9,25.6,109.8,25.7,109.7z"/>
	<path d="M143.8,114.7c-1.6,0-3.1,0-4.6,0c-1,0-2,0-3.1,0c-0.5,0-0.7,0.1-0.7,0.7c0,5.4,0,10.8,0,16.2c0,0.1,0.1,0.3,0,0.5
		c-0.1,0.1-0.2,0.3-0.3,0.3c-2,0-3.9,0-6,0c0-0.3,0-0.5,0-0.7c0-5.4,0-10.8,0-16.3c0-0.5-0.1-0.7-0.7-0.7c-2.3,0-4.6,0-7,0
		c-0.2,0-0.5,0-0.7,0c0-1.7,0-3.3,0-5c7.7,0,15.4,0,23.1,0C143.8,111.3,143.8,112.9,143.8,114.7z"/>
	<path d="M102.5,109.7c2.1,0,4.3,0,6.4,0c0,7.6,0,15.1,0,22.6c-2.1,0-4.3,0-6.4,0C102.5,124.8,102.5,117.2,102.5,109.7z"/>
	<path d="M236,138c-0.8-1.5-1.6-3-2.4-4.4c1.5-1,2.9-1.9,4.4-2.9c1,1.3,2.1,2.7,3.2,4.1c0.7-0.5,1.2-1,1.9-1.5
		c-1.1-1.3-2.3-2.7-3.3-3.9c1-1.1,2-2.1,3.1-3.3c1.3,1.1,2.5,2.3,3.9,3.5c0.5-0.7,1.1-1.4,1.7-2.1c-1.4-1.1-2.7-2.3-4-3.3
		c0.6-1,1.3-2,1.9-3.1c1.4,0.9,2.9,1.8,4.4,2.8c0.3-0.8,0.7-1.5,1.1-2.3c0.1-0.1-0.1-0.3-0.3-0.4c-1.3-0.7-2.5-1.4-3.7-2.1
		c-0.3-0.2-0.5-0.3-0.3-0.8c0.3-0.7,0.4-1.3,0.7-2.1c1.5,0.7,3.1,1.3,4.8,2.1c0.1-1,0.1-1.9,0.2-2.9c0-0.1-0.2-0.3-0.4-0.3
		c-1.2-0.5-2.4-0.9-3.7-1.3c-0.5-0.1-0.7-0.4-0.7-0.9c0-0.2,0-0.4,0-0.7c1.5,0.5,3,0.9,4.6,1.3c-0.1-1.1-0.4-2-0.9-2.9
		c-0.1-0.1-0.3-0.1-0.4-0.2c-1-0.2-2-0.5-3-0.6c-0.7-0.1-0.9-0.5-1.1-1.2c1.2,0.1,2.3,0.3,3.5,0.5c-0.1-0.2-0.1-0.3-0.2-0.4
		c-0.1-0.2-0.3-0.3-0.4-0.5c-0.9-1.1-1.9-1.8-3.4-1.6c-0.9,0.1-0.9,0-1.6-0.7c0.6,0,1.2,0,1.7,0c0-0.1,0-0.1,0.1-0.2
		c-1.3-0.8-2.8-1.2-4.4-1.5c6,0.5,9.9,5,10.6,9.5c0.4,2.8-0.2,5.5-1.2,8.1c-1.7,4.4-4.6,8-8,11.2c-3.5,3.5-7.8,6-12.4,7.7
		c-0.1,0.1-0.3,0.1-0.4,0.1c0,0-0.1,0-0.2,0c0-0.2,0-0.4,0-0.5c0-1.4,0-2.9,0-4.3c0-0.9,0-0.9,0.9-1.3c0.1,0.1,0.2,0.3,0.3,0.5
		c0.6,1.1,1.3,2.3,1.8,3.5c0.2,0.4,0.4,0.5,0.7,0.3C235.3,138.4,235.6,138.2,236,138z"/>
	<path d="M243.9,134c1.2-1.1,2.5-2.3,3.7-3.5c0.9,0.9,2.1,1.9,3.2,3c0.5-0.6,1.1-1.3,1.6-2.1c0.1-0.1-0.1-0.4-0.2-0.5
		c-0.9-1-1.8-2-2.7-3.1c0.6-0.9,1.4-2.1,2.2-3.4c1.1,0.9,2.2,1.7,3.4,2.7c0.4-0.9,0.8-1.8,1.2-2.7c0.1-0.1-0.1-0.3-0.3-0.4
		c-0.9-0.7-1.8-1.4-2.7-2.1c-0.3-0.2-0.3-0.3-0.2-0.7c0.3-0.9,0.6-1.7,0.9-2.7c1.1,0.7,2.2,1.4,3.5,2.1c0.1-0.8,0.1-1.5,0.3-2.2
		c0.2-1-0.2-1.6-1.1-2c-0.7-0.3-1.2-0.7-1.9-0.9c-0.3-0.1-0.5-0.3-0.4-0.7c0-0.4,0-0.8,0-1.3c1,0.5,2,0.9,3.1,1.4
		c-0.2-1.3-0.6-2.5-1.2-3.6c-0.1-0.1-0.2-0.2-0.4-0.2c-0.5-0.2-1-0.4-1.5-0.5c-0.9-0.1-1.3-0.7-1.5-1.6c0.7,0.2,1.5,0.4,2.2,0.6
		c-0.1-0.2-0.1-0.3-0.2-0.4c-0.9-1.1-1.9-2-3.1-2.7c-0.1-0.1-0.3-0.1-0.5-0.1c-0.6,0-1.1-0.3-1.4-0.8c1.9,0.5,3.4,1.5,4.7,2.9
		c2.8,3.1,3.9,6.8,3.5,11c-0.5,4.1-2.2,7.8-4.6,11.1c-2.9,4.1-6.5,7.6-10.6,10.4c-0.2,0.1-0.4,0.2-0.6,0.2c-1.2,0-2.5,0-3.7,0
		c-0.2,0-0.5-0.1-0.5-0.3c-0.5-0.7-0.9-1.4-1.3-2.1c1.8-1.1,3.5-2.2,5.3-3.4c0.9,1.1,1.8,2.3,2.7,3.5c0.7-0.5,1.3-1.1,2.1-1.7
		C245.8,136.3,244.9,135.2,243.9,134z"/>
	<path d="M231.7,133.2c0.4-0.2,0.9-0.4,1.3-0.7c-0.1-0.3-0.3-0.7-0.5-0.9c-0.3-0.7-0.6-1.3-1-1.9c-0.4-0.7-0.4-1.3-0.4-2.1
		c0-0.1,0.1-0.3,0.2-0.3c0.9-0.6,1.7-1.1,2.7-1.7c1.1,1.3,2.1,2.7,3.3,4.2c0.5-0.5,1.1-0.9,1.6-1.4c-1.2-1.3-2.3-2.7-3.5-3.9
		c0.8-0.8,1.6-1.6,2.5-2.4c1.2,1,2.5,2.1,3.9,3.2c0.5-0.6,0.9-1.2,1.5-1.9c-1.5-1-2.9-2-4.3-3c0.5-0.7,1-1.5,1.5-2.4
		c1.5,0.7,3,1.5,4.6,2.3c0.3-0.7,0.7-1.4,1-2.2c-1.6-0.7-3.1-1.3-4.7-2c0.2-0.5,0.4-1.1,0.6-1.9c1.5,0.4,3.1,0.9,4.8,1.3
		c0.1-0.7,0.2-1.5,0.3-2.2c0-0.1-0.2-0.3-0.3-0.4c-1.2-0.3-2.4-0.5-3.7-0.7c-0.2-0.1-0.4-0.1-0.7-0.1c0-0.3,0.1-0.7,0.1-1.1
		c1.5,0.2,2.9,0.4,4.6,0.6c-0.2-0.7-0.3-1.5-0.6-2.1c-0.1-0.1-0.3-0.2-0.5-0.2c-1.1-0.1-2.1-0.1-3.1-0.1c-0.7,0-0.7,0-0.9-0.9
		c1.3,0,2.5,0,3.8,0c-0.3-1.2-1.1-1.9-2.2-1.9c-0.7,0.1-1.3,0.1-1.9,0.2c-0.6,0.1-0.6,0.1-1-0.5c0.9-0.1,1.8-0.3,2.7-0.5
		c-0.5-0.7-2.1-1.3-2.8-1.1c-0.3,0.1-0.7,0.1-1,0.3c-0.4,0.2-0.7,0.1-1.1-0.2c0.4-0.1,0.8-0.3,1.1-0.5c0-0.1,0-0.1-0.1-0.2
		c-1.3,0-2.7,0-4.1,0c3.5-0.5,6.7-0.1,9.4,2.4c2.1,2.1,2.9,4.6,2.6,7.5c-0.5,5.3-3.1,9.4-6.6,13.2c-2.7,2.8-5.8,5.1-9.2,6.8
		c-0.2,0.1-0.4,0.1-0.6,0.3c0-0.5,0-0.9,0-1.5C231.4,132.7,231.5,133,231.7,133.2z"/>
	<path d="M247.6,138.5c1.3-1.3,2.7-2.5,4-3.9c0.6,0.7,1.4,1.7,2.3,2.7c0.7-0.8,1.3-1.5,1.9-2.3c0.1-0.1-0.1-0.3-0.1-0.5
		c-0.7-0.7-1.3-1.5-1.9-2.2c-0.2-0.2-0.3-0.3-0.1-0.6c0.8-1.2,1.6-2.4,2.5-3.7c0.8,0.9,1.5,1.7,2.3,2.6c0.1-0.1,0.2-0.1,0.3-0.1
		c0.4-0.9,0.8-1.9,1.2-2.8c0.1-0.1-0.1-0.3-0.2-0.4c-0.7-0.6-1.3-1.3-1.9-1.9c-0.1-0.1-0.3-0.4-0.3-0.5c0.3-1.1,0.7-2.1,1.1-3.2
		c0.8,0.7,1.5,1.3,2.5,2c0.1-0.9,0.1-1.7,0.2-2.5c0.1-1.1-0.1-2-1.2-2.5c-1.2-0.5-1.3-1.6-1.2-2.8c0.6,0.4,1.2,0.7,1.9,1.1
		c-0.1-0.3-0.1-0.4-0.1-0.5c-0.4-1-0.8-2-1.2-3c-0.3-0.7-0.8-1.1-1.5-1.5c-0.5-0.3-0.7-0.9-1.1-1.4c0.1-0.1,0.1-0.1,0.1-0.1
		c0.3,0.1,0.6,0.3,0.7,0.5c2.1,2.3,3.3,5,3.7,8c0.5,4.4-0.6,8.4-2.7,12.2c-2.1,3.7-4.8,7-7.9,9.9c-0.5,0.5-0.9,0.4-1.3-0.1
		C248.8,140.2,248.2,139.3,247.6,138.5z"/>
	<path d="M240.5,115.7c-1.7-0.5-3.4-0.9-5.1-1.4c0.1-0.9,0.2-1.1,1.1-0.9c1.4,0.1,2.8,0.4,4.2,0.6c0.3,0.1,0.5,0,0.5-0.3
		c0.1-0.5,0.2-1,0.3-1.6c-1.9-0.1-3.7-0.1-5.6-0.2c-0.1-0.5,0.1-0.8,0.7-0.8c1.5,0,2.9-0.1,4.5-0.1c0.4,0,0.5-0.1,0.5-0.5
		c-0.1-1.2-0.1-1.3-1.3-1.2c-1.3,0.1-2.6,0.3-3.9,0.5c-0.5,0.1-0.5-0.1-0.5-0.6c1.7-0.3,3.3-0.5,5.2-0.9c-0.3-0.5-0.5-0.9-0.9-1.2
		c-0.1-0.1-0.3-0.1-0.5-0.1c-1.3,0.3-2.6,0.7-3.9,1.1c-0.3,0.1-0.6,0.1-0.7-0.4c1.4-0.4,2.8-0.9,4.2-1.3c-0.5-0.7-1.3-1.1-2.1-0.8
		c-0.9,0.3-1.7,0.7-2.6,1.1c-0.2,0.1-0.4,0.1-0.6,0.1c0-0.1,0-0.1-0.1-0.2c0.5-0.3,0.9-0.5,1.5-0.7c0.5-0.2,1-0.4,1.5-0.7
		c-0.9-0.3-1.9-0.7-2.9-0.1c-0.3,0.3-0.7,0.5-1.1,0.7c-0.2,0.1-0.4,0.1-0.6,0.2c0-0.1-0.1-0.1-0.1-0.2c0.4-0.3,0.7-0.6,1.1-0.9
		c0-0.1,0-0.1,0-0.1c-0.7,0.1-1.3,0.1-2.1,0.2c0.1-0.1,0.2-0.1,0.3-0.2c2.1-0.4,4.3-0.5,6.4,0.3c3.3,1.3,4.4,4.1,4.1,7.2
		c-0.5,4.1-2.6,7.3-5.4,10.2c-1.5,1.7-3.3,3.1-5.4,4.3c0-1.5,0-3.1,0-4.7c0.7,0.9,1.4,1.8,2.1,2.7c0.4-0.3,0.8-0.7,1.3-1
		c-1.2-1.3-2.3-2.5-3.3-3.6c0.5-0.5,1-1.1,1.6-1.7c1.3,0.9,2.7,1.9,4.1,2.9c0.4-0.5,0.7-0.9,1.2-1.4c-1.5-0.9-3-1.7-4.5-2.6
		c0.3-0.5,0.5-0.9,0.8-1.3c0.1-0.1,0.4-0.2,0.5-0.1c1.3,0.5,2.6,0.9,3.9,1.4c0.7,0.3,0.7,0.3,1.1-0.4c0.1-0.3,0.3-0.5,0.3-0.7
		C240.4,116,240.5,115.9,240.5,115.7z"/>
	<path d="M262.9,118.7c-0.3-1.9-1.3-3.4-2.3-5c1.1,1.3,2,2.7,2.5,4.3c1.5,4,1.2,8.1,0,12.2c-1.2,4.1-3.4,7.7-6.2,11
		c-0.1,0.1-0.3,0.3-0.4,0.3c-1.6,0-3.2,0-4.9,0c1-1.1,1.9-2.1,2.9-3.1c0.7,0.9,1.3,1.7,2.1,2.7c0.7-0.8,1.3-1.6,1.8-2.3
		c0.1-0.1,0-0.3-0.1-0.5c-0.5-0.7-1-1.3-1.5-2c-0.1-0.1-0.2-0.5-0.1-0.6c0.9-1.3,1.7-2.7,2.7-4.1c0.6,0.7,1.2,1.5,1.9,2.4
		c0.5-1.1,0.9-2.1,1.2-3.1c0.1-0.1-0.1-0.3-0.2-0.5c-0.4-0.6-0.9-1.1-1.3-1.7c-0.1-0.2-0.2-0.5-0.1-0.7c0.3-1.1,0.6-2.1,0.9-3.3
		c0.5,0.6,1.1,1.1,1.7,1.8c0.1-0.7,0.2-1.3,0.2-1.8c0.1-0.5-0.1-1,0-1.5c0.1-1-0.3-1.7-1.1-2.3c-0.4-0.3-0.6-0.6-0.6-1.1
		c0-0.5-0.1-1.1-0.2-1.7C262.4,118.3,262.6,118.5,262.9,118.7z"/>
	<path d="M264.6,120.6c1.2,2.4,1.5,5,1.2,7.6c-0.5,4.7-2.3,8.9-4.8,12.8c-0.1,0.1-0.3,0.3-0.4,0.6c-0.5-0.7-0.9-1.3-1.2-2
		c-0.1-0.1,0-0.3,0.1-0.3c0.9-1.3,1.7-2.7,2.6-4.1c0.3,0.5,0.6,0.9,1,1.6c0.5-1.2,0.9-2.2,1.2-3.3c0.1-0.3-0.2-0.7-0.5-1
		c-0.3-0.5-0.3-0.9-0.1-1.4c0.3-1,0.6-2.1,0.9-3.1c0.2,0.3,0.5,0.5,0.8,0.9c0.1-1,0.3-1.9,0.3-2.7c0.1-0.5,0.1-1,0-1.5
		c0-0.2-0.1-0.5-0.2-0.7C264.6,122.8,264.8,121.6,264.6,120.6z"/>
	<path d="M234.7,109.9c-1.1,0.3-2.3,0.6-3.4,0.9c-0.1-0.1-0.1-0.1-0.1-0.1c0.1-0.1,0.3-0.3,0.4-0.3c0.8-0.3,1.7-0.5,2.5-0.8
		c0.2-0.1,0.3-0.1,0.5-0.1c-0.1-0.9-0.2-0.9-1-0.7c-0.8,0.3-1.6,0.7-2.4,1c-0.1-0.1-0.1-0.1-0.1-0.1c0.1-0.1,0.3-0.3,0.4-0.4
		c0.8-0.4,1.5-0.7,2.3-1.1c-0.3-0.7-0.5-0.8-1.2-0.5c-0.5,0.3-0.9,0.5-1.5,0.7c0.3-0.7,1.1-0.8,1.5-1.3c-0.5-0.3-0.9-0.7-1.5-0.3
		c0-0.2,0-0.3,0-0.5c1.9,0.1,3.6,1.7,4,3.5c0.2,1.2,0.1,2.3-0.3,3.5c-0.7,2.1-2,3.9-3.7,5.5c0-0.5,0-1.1,0-1.5
		c0.8,0.3,0.9,0.3,1.3-0.6c-0.1-0.1-0.3-0.2-0.5-0.3c-1-0.5-1-0.5-0.8-1.8c0.5,0.1,1,0.3,1.5,0.4c1,0.3,1,0.3,1.4-0.9
		c-0.9-0.1-1.9-0.3-2.8-0.5c-0.1-0.4,0-0.6,0.5-0.6c0.7,0,1.4,0,2.1,0.1c0.7,0.1,0.9-0.2,0.9-0.8c0-0.1,0-0.2,0-0.4
		c-0.5,0-1.1,0-1.5,0c-0.5,0-1.1,0.1-1.6,0.1c-0.1,0-0.3-0.1-0.4-0.1c0.1-0.1,0.2-0.3,0.3-0.3c0.9-0.1,1.7-0.3,2.6-0.5
		C235,111,235.1,110.9,234.7,109.9z"/>
	<path d="M266.8,128.4c0,4.1-1.1,7.8-2.7,11.4c-0.1,0.1-0.1,0.2-0.1,0.3c-0.7,1.4-0.7,1.5-2.4,1.2c0.7-1.2,1.4-2.4,2.1-3.7
		c0.2,0.3,0.3,0.6,0.6,1c0.4-1.2,0.8-2.3,1.1-3.3c0-0.1,0-0.1-0.1-0.2c-0.4-0.7-0.2-1.3,0.1-1.9c0.3-0.7,0.4-1.5,0.6-2.3
		c0.1-0.3,0.1-0.6,0.4-0.9C266.8,129.7,266.7,129.1,266.8,128.4z"/>
	<path d="M235.8,141.3c-1.6,0-3.1,0-4.6,0v-0.1c1.2-0.5,2.4-0.9,3.7-1.4C235.2,140.3,235.5,140.8,235.8,141.3z"/>
	<path d="M264.2,141.3c0.2-0.4,0.4-0.8,0.6-1.2c0.1,0.1,0.2,0.1,0.3,0.2c0.5-1.7,0.9-3.3,1.4-4.8c0.1,0,0.1,0,0.1,0
		c-0.3,1.5-0.7,2.9-1.1,4.4c-0.1,0.3-0.2,0.5-0.3,0.9C265.2,141.3,264.9,141.5,264.2,141.3z"/>
	<path d="M246.2,141.4c-0.9,0-1.6,0-2.4,0c0.6-0.5,1.1-0.8,1.6-1.2C245.7,140.5,246,140.9,246.2,141.4z"/>
</g>
</svg>
