<?xml version="1.0" encoding="utf-8"?>
<!-- Generator: Adobe Illustrator 22.1.0, SVG Export Plug-In . SVG Version: 6.00 Build 0)  -->
<svg version="1.1" id="Layer_1" xmlns="http://www.w3.org/2000/svg" xmlns:xlink="http://www.w3.org/1999/xlink" x="0px" y="0px"
	 viewBox="0 0 300 250" style="enable-background:new 0 0 300 250;" xml:space="preserve">
<style type="text/css">
	.st0{fill:#FFFFFF;}
</style>
<path class="st0" d="M115.4,50c-8.4,0-16.8,0-25.2,0c-0.4,0-0.7-0.1-0.9-0.5c-7.7-12.3-15.4-24.6-23-36.9c-0.2-0.3-0.4-0.5-0.8-0.5
	c-2.8,0-5.6,0-8.3,0c-0.2,0-0.3,0-0.6,0c2,6.3,4,12.7,5.9,19c-2.3,0.2-4.2,2.1-4.2,4.5c0,2.5,2,4.5,4.5,4.5h2.5c1,3.3,2,6.5,3.1,9.8
	c-0.2,0-0.4,0-0.5,0c-8.3,0-16.7,0-25,0c-0.3,0-0.6-0.1-0.8-0.4c-2.2-2.9-4.4-5.8-6.5-8.7c-0.2-0.3-0.4-0.4-0.7-0.4
	c-1.5,0-3,0-4.5,0c-0.7,0-1.4,0-2.2,0c0,0,0,0.1,0,0.1c0.4,1.5,0.9,3,1.3,4.5c1.1,3.8,2.2,7.6,3.3,11.4c0.1,0.2,0.1,0.5,0,0.8
	c-1.5,5.3-3,10.5-4.5,15.8c0,0.1-0.1,0.2-0.1,0.3c0,0.1,0,0.1,0,0.2c0.2,0,0.3,0,0.5,0c2,0,4.1,0,6.1,0c0.4,0,0.6-0.1,0.8-0.4
	c2.2-2.9,4.3-5.8,6.5-8.7c0.2-0.3,0.4-0.4,0.8-0.4c8.3,0,16.7,0,25,0c0.2,0,0.3,0,0.5,0c-0.1,0.4-0.2,0.8-0.3,1.2
	c-0.6,2-1.3,4-1.9,6h-3.3c-2.5,0-4.5,2-4.5,4.5c0,2.5,2,4.5,4.5,4.5h0.5c-2.2,7-4.4,14-6.6,21c-0.1,0.2-0.1,0.4-0.1,0.6
	c3.1,0,6.2,0,9.4,0c0-0.1,0-0.1,0.1-0.2C73.7,89.4,81.5,77,89.2,64.6c0.2-0.4,0.5-0.5,0.9-0.5c8.3,0,16.5,0,24.8,0
	c0.4,0,0.8,0,1.2,0c3.4-0.2,6.4-3.4,6.5-6.8C122.7,53.3,119.4,50,115.4,50z"/>
<path class="st0" d="M265.4,176c-8.4,0-16.8,0-25.2,0c-0.4,0-0.7-0.1-0.9-0.5c-7.7-12.3-15.4-24.6-23-36.9c-0.2-0.3-0.4-0.5-0.8-0.5
	c-2.8,0-5.6,0-8.3,0c-0.2,0-0.3,0-0.6,0c2,6.3,4,12.7,5.9,19c-2.3,0.2-4.2,2.1-4.2,4.5c0,2.5,2,4.5,4.5,4.5h2.5c1,3.3,2,6.5,3.1,9.8
	c-0.2,0-0.4,0-0.5,0c-8.3,0-16.7,0-25,0c-0.3,0-0.6-0.1-0.8-0.4c-2.2-2.9-4.4-5.8-6.5-8.7c-0.2-0.3-0.4-0.4-0.7-0.4
	c-1.5,0-3,0-4.5,0c-0.7,0-1.4,0-2.2,0c0,0,0,0.1,0,0.1c0.4,1.5,0.9,3,1.3,4.5c1.1,3.8,2.2,7.6,3.3,11.4c0.1,0.2,0.1,0.5,0,0.8
	c-1.5,5.3-3,10.5-4.5,15.8c0,0.1-0.1,0.2-0.1,0.3c0,0.1,0,0.1,0,0.2c0.2,0,0.3,0,0.5,0c2,0,4.1,0,6.1,0c0.4,0,0.6-0.1,0.8-0.4
	c2.2-2.9,4.3-5.8,6.5-8.7c0.2-0.3,0.4-0.4,0.8-0.4c8.3,0,16.7,0,25,0c0.2,0,0.3,0,0.5,0c-0.1,0.4-0.2,0.8-0.3,1.2
	c-0.6,2-1.3,4-1.9,6h-3.3c-2.5,0-4.5,2-4.5,4.5c0,2.5,2,4.5,4.5,4.5h0.5c-2.2,7-4.4,14-6.6,21c-0.1,0.2-0.1,0.4-0.1,0.6
	c3.1,0,6.2,0,9.4,0c0-0.1,0-0.1,0.1-0.2c7.7-12.4,15.5-24.8,23.2-37.2c0.2-0.4,0.5-0.5,0.9-0.5c8.3,0,16.5,0,24.8,0
	c0.4,0,0.8,0,1.2,0c3.4-0.2,6.4-3.4,6.5-6.8C272.7,179.3,269.4,176,265.4,176z"/>
</svg>
